<svg aria-hidden="true" style="position:absolute;width:0;height:0;overflow:hidden" xmlns="http://www.w3.org/2000/svg"><defs>
<symbol id="icon-bath" viewBox="0 0 32 32"><path d="M28.647 15.946H3.353c-.996 0-1.807.811-1.807 1.807s.811 1.807 1.807 1.807h25.294c.996 0 1.807-.811 1.807-1.807s-.811-1.807-1.807-1.807z"/><path d="M28.813 18.378a.598.598 0 0 0-.744.414l-.047.165H3.98l-.048-.165a.6.6 0 1 0-1.157.33l1.66 5.81a4.232 4.232 0 0 0 4.053 3.058h15.026a4.232 4.232 0 0 0 4.053-3.058l1.66-5.81a.6.6 0 0 0-.412-.744zM8.488 25.582a1.812 1.812 0 0 1-1.737-1.31l-.782-2.739a.601.601 0 1 1 1.157-.33l.782 2.739a.607.607 0 0 0 .579.437.603.603 0 0 1 0 1.203z"/><path d="M9.644 26.849a.604.604 0 0 0-.808.27l-1.204 2.409a.603.603 0 0 0 1.078.538l1.204-2.409a.603.603 0 0 0-.27-.808zM24.369 29.529l-1.204-2.409a.602.602 0 1 0-1.078.538l1.204 2.409a.601.601 0 0 0 .808.269.603.603 0 0 0 .27-.808zM25.738 1.6c-.614 0-1.192.24-1.627.675l-1.912 1.912a.603.603 0 0 0 .852.852l1.911-1.91c.206-.207.482-.322.782-.322.604 0 1.096.491 1.096 1.096V16.55a.603.603 0 0 0 1.205-.001V3.902a2.305 2.305 0 0 0-2.308-2.301z"/><path d="m23.653 4.788-1.204-1.204a.6.6 0 0 0-.524-.169l-3.011.494a.604.604 0 0 0-.335 1.013l3.613 3.722a.599.599 0 0 0 .602.158.6.6 0 0 0 .42-.459l.602-3.011a.601.601 0 0 0-.164-.543zM15.823 8.897a.603.603 0 0 0-.852 0l-1.204 1.204a.603.603 0 0 0 .851.852l1.204-1.204a.603.603 0 0 0 0-.852zM18.232 11.306a.603.603 0 0 0-.852 0l-1.204 1.204a.603.603 0 0 0 .851.852l1.204-1.204a.603.603 0 0 0 0-.852zM19.436 7.692a.603.603 0 0 0-.852 0L17.38 8.896a.603.603 0 0 0 .851.852l1.204-1.204a.603.603 0 0 0 0-.852z"/></symbol>
<symbol id="icon-bed" viewBox="0 0 32 32"><path d="M26.4 14.359c3.028 0 5.6 2.524 5.6 5.744v4.923h-2.4v1.641H28v-1.641H4v1.641H2.4v-1.641H0v-4.923c0-3.106 2.485-5.744 5.6-5.744h20.8zm-1.6-9.026c2.151 0 4.001 1.774 4 4.103l.001 3.92a4.87 4.87 0 0 0-2.401-.638l-1.6-.001c0-1.405-1.122-2.461-2.4-2.461h-4.8c-.615 0-1.175.237-1.6.627a2.36 2.36 0 0 0-1.6-.627H9.6c-1.325 0-2.4 1.102-2.4 2.461l-1.6.001a4.87 4.87 0 0 0-2.4.638v-3.92c0-2.206 1.725-4.103 4-4.103h17.6zm-10.4 6.564c.434 0 .8.41.8.821l-6.4-.001c0-.502.39-.82.8-.82h4.8zm8 .006c.453-.006.8.394.8.814h-6.4c0-.509.39-.82.8-.82l4.8.005z"/></symbol>
<symbol id="icon-building" viewBox="0 0 32 32"><path d="M7.111 32H1.778C.8 32 0 31.2 0 30.222V10.115c0-.747.444-1.404 1.138-1.671L20.694.924a1.784 1.784 0 0 1 1.651.196c.238.165.433.385.567.642.134.257.203.543.2.833v9.849H8.89c-.978 0-1.778.8-1.778 1.778V32zm17.778-16H12.445c-.978 0-1.778.8-1.778 1.778v12.444c0 .978.8 1.778 1.778 1.778h7.111v-7.111c0-.978.8-1.778 1.778-1.778s1.778.8 1.778 1.778V32h7.111c.978 0 1.778-.8 1.778-1.778V16c0-1.956-1.6-3.556-3.556-3.556s-3.556 1.6-3.556 3.556z"/></symbol>
<symbol id="icon-burger" viewBox="0 0 32 32"><path stroke-linejoin="round" stroke-linecap="round" stroke-width="2.667" d="M2.667 5.333h26.667M2.667 16h26.667M2.667 26.667h26.667"/></symbol>
<symbol id="icon-car" viewBox="0 0 32 32"><path d="M31.178 8.838 17.809.506a3.443 3.443 0 0 0-3.616.015L.81 8.846c-.831.522-1.061 1.588-.514 2.381s1.664 1.013 2.496.49l13.221-8.225 13.205 8.232c.303.187.642.275.978.275.592 0 1.169-.276 1.514-.784.541-.797.302-1.86-.532-2.376z"/><path d="M26.948 19.671c-.102-.6-.611-1.044-1.204-1.044h-.682l-.259-2.765c-.277-2.957-2.671-5.195-5.569-5.195h-6.465c-2.899 0-5.293 2.238-5.57 5.195l-.258 2.765h-.683c-.594 0-1.102.444-1.206 1.044l-1.015 5.898a2.56 2.56 0 0 0 .541 2.051 2.443 2.443 0 0 0 1.798.897v.979C6.376 30.883 7.46 32 8.814 32h.77c1.352 0 2.452-1.117 2.452-2.504v-.963h7.937v.961c0 1.387 1.091 2.506 2.444 2.506h.771c1.352 0 2.445-1.119 2.445-2.506v-.977a2.431 2.431 0 0 0 1.792-.893 2.565 2.565 0 0 0 .54-2.05l-1.016-5.903zM8.521 26.258c-1.141 0-2.067-.948-2.067-2.12s.925-2.12 2.067-2.12c1.142 0 2.068.948 2.068 2.12s-.926 2.12-2.068 2.12zm.515-7.631.239-2.551c.174-1.855 1.675-3.252 3.493-3.252h.373v.802c0 .696.539 1.25 1.217 1.25h3.285c.678 0 1.227-.554 1.227-1.25v-.801h.363c1.818 0 3.319 1.397 3.492 3.252l.239 2.551-13.928-.001zm14.441 7.631c-1.141 0-2.067-.948-2.067-2.12s.925-2.12 2.067-2.12c1.142 0 2.068.948 2.068 2.12s-.926 2.12-2.068 2.12z"/></symbol>
<symbol id="icon-check" viewBox="0 0 32 32"><path stroke-linecap="round" stroke-width="2.667" d="m2.667 16 8.046 8 18.62-17.333"/></symbol>

<symbol id="icon-fb" viewBox="0 0 32 32"><path d="M32 16.097C32 7.208 24.836 0 16 0S0 7.208 0 16.097c0 8.034 5.85 14.693 13.5 15.902V20.752H9.436v-4.654H13.5v-3.546c0-4.034 2.389-6.263 6.044-6.263 1.751 0 3.582.315 3.582.315v3.962h-2.019c-1.987 0-2.608 1.24-2.608 2.515v3.018h4.437l-.709 4.654h-3.728v11.249c7.65-1.208 13.5-7.867 13.5-15.903z"/></symbol>
<symbol id="icon-home" viewBox="0 0 32 32"><path d="M24.889 14.222V3.555c0-1.956-1.6-3.556-3.556-3.556H10.666A3.566 3.566 0 0 0 7.11 3.555v3.556H3.554a3.566 3.566 0 0 0-3.556 3.556v17.778c0 1.956 1.6 3.556 3.556 3.556h10.667V24.89h3.556v7.111h10.667c1.956 0 3.556-1.6 3.556-3.556V17.778c0-1.956-1.6-3.556-3.556-3.556h-3.556zM7.111 28.444H3.555v-3.556h3.556v3.556zm0-7.111H3.555v-3.556h3.556v3.556zm0-7.111H3.555v-3.556h3.556v3.556zm7.111 7.111h-3.556v-3.556h3.556v3.556zm0-7.111h-3.556v-3.556h3.556v3.556zm0-7.111h-3.556V3.555h3.556v3.556zm7.111 14.222h-3.556v-3.556h3.556v3.556zm0-7.111h-3.556v-3.556h3.556v3.556zm0-7.111h-3.556V3.555h3.556v3.556zm7.111 21.333h-3.556v-3.556h3.556v3.556zm0-7.111h-3.556v-3.556h3.556v3.556z"/></symbol>
<symbol id="icon-house" viewBox="0 0 32 32"><path d="M31.158 14.875v14.599a2.532 2.532 0 0 1-1.333 2.233 2.434 2.434 0 0 1-1.19.293h-7.588a1.262 1.262 0 0 1-1.263-1.263v-7.58a1.262 1.262 0 0 0-1.263-1.263h-5.053a1.262 1.262 0 0 0-1.263 1.263v7.58A1.262 1.262 0 0 1 10.942 32H3.369a2.517 2.517 0 0 1-1.893-.853 2.598 2.598 0 0 1-.633-1.731V14.875a2.533 2.533 0 0 1 .827-1.87L14.3 1.521a2.515 2.515 0 0 1 3.399-.001l12.633 11.485a2.528 2.528 0 0 1 .826 1.87z"/></symbol>
<symbol id="icon-instagram" viewBox="0 0 32 32"><path d="M22.666 2.666a6.685 6.685 0 0 1 6.668 6.668v13.333a6.685 6.685 0 0 1-6.668 6.668H9.333a6.685 6.685 0 0 1-6.668-6.668V9.334a6.685 6.685 0 0 1 6.668-6.668h13.333zm0-2.666H9.333C4.199 0-.001 4.2-.001 9.334v13.333C-.001 27.8 4.199 32 9.333 32h13.333C27.8 32 32 27.8 32 22.667V9.334C32 4.2 27.8 0 22.666 0z"/><path d="M24.666 9.334a1.997 1.997 0 0 1-1.847-1.235 2.007 2.007 0 0 1 .433-2.18 1.998 1.998 0 0 1 3.415 1.415 1.993 1.993 0 0 1-1.999 1.999zm-8.667 1.333a5.333 5.333 0 0 1 1.039 10.566 5.339 5.339 0 0 1-5.476-2.268 5.336 5.336 0 0 1-.899-2.963 5.342 5.342 0 0 1 5.334-5.334zm0-2.666a8.003 8.003 0 0 0-7.391 4.938 8 8 0 0 0 14.042 7.507 7.998 7.998 0 0 0-.995-10.102 8 8 0 0 0-5.657-2.343z"/></symbol>

<symbol id="icon-mail" viewBox="0 0 32 32"><path d="M27.2 3.2H4.8A4.8 4.8 0 0 0 0 8v16a4.8 4.8 0 0 0 4.8 4.8h22.4A4.8 4.8 0 0 0 32 24V8a4.8 4.8 0 0 0-4.8-4.8zm0 3.2-10.4 7.152a1.603 1.603 0 0 1-1.6 0L4.8 6.4h22.4z"/></symbol>
<symbol id="icon-map" viewBox="0 0 32 32"><path d="M16 0c3.472 0 6.802 1.445 9.257 4.017s3.834 6.06 3.834 9.698c0 6.553-4.222 12.585-12.506 18.108-.175.116-.378.178-.585.178s-.41-.062-.585-.178C7.131 26.301 2.909 20.269 2.909 13.715c0-3.637 1.379-7.126 3.834-9.698S12.528 0 16 0zm0 9.143c-1.157 0-2.267.482-3.086 1.339s-1.278 2.02-1.278 3.233c0 1.212.46 2.375 1.278 3.232s1.928 1.339 3.086 1.339c1.157 0 2.267-.482 3.086-1.339s1.278-2.02 1.278-3.232c0-1.212-.46-2.375-1.278-3.233S17.158 9.143 16 9.143z"/></symbol>
<symbol id="icon-money" viewBox="0 0 32 32"><path d="M27.52 8.32h-24v-.96l21.12-1.69v1.69h2.88V4.48c0-2.112-1.711-3.594-3.8-3.297L4.441 3.936C2.35 4.236.639 6.207.639 8.319v19.2a3.84 3.84 0 0 0 3.84 3.84h23.04a3.84 3.84 0 0 0 3.84-3.84v-15.36a3.842 3.842 0 0 0-3.84-3.84zm-2.88 13.452a2.874 2.874 0 0 1-2.036-.845 2.897 2.897 0 0 1-.843-2.038 2.87 2.87 0 0 1 .845-2.036 2.877 2.877 0 0 1 2.038-.843 2.882 2.882 0 0 1-.001 5.761z"/></symbol>
<symbol id="icon-phone" viewBox="0 0 32 32"><path d="M10.215.767a3.835 3.835 0 0 1 4.468 1.816l.144.286 1.269 2.824a4.791 4.791 0 0 1-.849 5.219l-.253.253-2.004 1.868c-.361.342-.09 1.665 1.217 3.926 1.173 2.035 2.131 2.986 2.6 3.037h.083l.102-.019 3.936-1.204a2.883 2.883 0 0 1 3.003.846l.177.221 2.604 3.61a3.846 3.846 0 0 1-.238 4.794l-.234.242-1.043.987a6.725 6.725 0 0 1-7.133 1.354c-3.715-1.498-7.091-4.919-10.157-10.23-3.072-5.324-4.349-9.965-3.779-13.939a6.716 6.716 0 0 1 4.343-5.355l.371-.123 1.375-.415z"/></symbol>
<symbol id="icon-pinterest" viewBox="0 0 32 32"><path d="M16.004 0C7.166 0 0 7.163 0 15.996c0 6.549 3.944 12.176 9.581 14.654-.043-1.114-.007-2.457.279-3.671l2.058-8.72s-.514-1.021-.514-2.528c0-2.371 1.372-4.142 3.086-4.142 1.457 0 2.158 1.093 2.158 2.399 0 1.464-.936 3.649-1.415 5.677-.4 1.7.85 3.078 2.529 3.078 3.029 0 5.073-3.892 5.073-8.505 0-3.506-2.365-6.127-6.659-6.127-4.851 0-7.88 3.621-7.88 7.663 0 1.393.414 2.378 1.057 3.135.293.35.336.493.229.893-.079.293-.25 1-.329 1.285-.107.407-.436.55-.8.4-2.236-.914-3.279-3.356-3.279-6.113 0-4.542 3.837-9.991 11.438-9.991 6.108 0 10.131 4.42 10.131 9.162 0 6.277-3.494 10.962-8.638 10.962-1.729 0-3.351-.936-3.908-1.993 0 0-.929 3.685-1.129 4.399-.336 1.235-1 2.464-1.607 3.428 1.473.434 3.001.656 4.537.657 8.838 0 16.004-7.163 16.004-15.996S24.843-.002 16.006-.002z"/></symbol>
<symbol id="icon-arrow2" viewBox="0 0 32 32"><path d="M13.514 6.669a1.641 1.641 0 0 0-.967.306c-.153.112-.279.249-.372.404s-.15.324-.168.498c-.018.174.003.35.062.517s.155.322.282.457l6.769 7.131-6.528 7.144c-.126.136-.219.293-.276.461s-.075.344-.054.519c.021.174.081.343.177.497s.225.29.38.399c.156.121.339.213.538.268s.408.075.615.056c.207-.019.408-.075.589-.165s.339-.212.465-.359l7.298-7.982c.222-.238.344-.537.344-.845s-.121-.607-.344-.845l-7.555-7.982c-.152-.161-.344-.288-.562-.371s-.455-.12-.692-.107z"/></symbol>
<symbol id="icon-stairs" viewBox="0 0 32 32"><path d="M30.385 6.667h-5.808c-.892 0-1.616.716-1.616 1.599v4.152h-4.193c-.893 0-1.616.715-1.616 1.599v4.152h-4.193c-.893 0-1.616.716-1.616 1.599v4.352H6.949c-.429 0-.84.168-1.143.468s-.473.709-.473 1.131v3.346c0 .885.723 1.6 1.616 1.6h23.435c.893 0 1.615-.715 1.615-1.6v-20.8c0-.884-.723-1.599-1.615-1.599z"/><path d="M22.352 1.661a1.13 1.13 0 0 0-1.57-.02C13.658 8.408 6.88 15.017.326 21.407c-.209.203-.325.48-.325.766v7.411c0 .597.497 1.083 1.111 1.083s1.111-.486 1.111-1.083v-6.963c6.448-6.287 13.114-12.784 20.11-19.429a1.065 1.065 0 0 0 .021-1.531z"/></symbol>
<symbol id="icon-star" viewBox="0 0 32 32"><path d="M31.916 11.488a1.595 1.595 0 0 0-1.388-1.082l-9.122-.725L17.459.945a1.6 1.6 0 0 0-2.326-.689 1.59 1.59 0 0 0-.59.688l-3.947 8.738-9.122.725a1.597 1.597 0 0 0-1.378 1.051 1.597 1.597 0 0 0 .388 1.69l6.741 6.57L4.841 30.04a1.6 1.6 0 0 0 2.448 1.69l8.712-5.807 8.712 5.807a1.604 1.604 0 0 0 2.4-.811c.107-.309.116-.644.027-.958l-2.926-10.239 7.258-6.53c.475-.429.65-1.097.445-1.704z"/></symbol>
<symbol id="icon-twitter" viewBox="0 0 32 32"><path d="M32 5.826c-1.2.543-2.47.901-3.77 1.063a6.726 6.726 0 0 0 2.889-3.722 12.86 12.86 0 0 1-4.171 1.632c-.618-.675-1.363-1.213-2.187-1.579s-1.711-.555-2.607-.553c-3.628 0-6.564 3.014-6.564 6.729a6.712 6.712 0 0 0 .169 1.535c-2.602-.127-5.149-.818-7.479-2.03S3.888 5.985 2.226 3.896a6.864 6.864 0 0 0-.893 3.382 6.786 6.786 0 0 0 2.933 5.604 6.3 6.3 0 0 1-2.985-.84v.083c0 3.264 2.267 5.979 5.267 6.597a6.449 6.449 0 0 1-1.729.236 6.022 6.022 0 0 1-1.234-.125c.834 2.674 3.261 4.618 6.137 4.674A12.965 12.965 0 0 1 0 26.292a18.04 18.04 0 0 0 10.049 3.042c12.091 0 18.696-10.257 18.696-19.153 0-.292-.007-.583-.021-.868a13.53 13.53 0 0 0 3.275-3.486z"/></symbol>
<symbol id="icon-fire" viewBox="0 0 32 32"><path d="M26.981 14.541a11.839 11.839 0 0 0-2.826-3.927l-.992-.91c-.034-.03-.074-.051-.118-.062s-.09-.011-.133.001-.084.033-.118.063a.272.272 0 0 0-.074.111l-.443 1.272c-.276.798-.784 1.613-1.503 2.414-.048.051-.102.065-.14.068s-.096-.003-.147-.051a.198.198 0 0 1-.068-.164c.126-2.052-.488-4.367-1.831-6.886-1.111-2.093-2.656-3.726-4.585-4.865L12.595.777a.273.273 0 0 0-.409.249l.075 1.636c.051 1.118-.078 2.107-.385 2.928a9.72 9.72 0 0 1-1.602 2.778A10.075 10.075 0 0 1 8.655 9.94a12.004 12.004 0 0 0-3.419 4.142 11.851 11.851 0 0 0-.29 9.896 11.983 11.983 0 0 0 6.389 6.328c1.48.62 3.048.934 4.667.934s3.188-.314 4.667-.931a11.874 11.874 0 0 0 3.815-2.547 11.804 11.804 0 0 0 3.518-8.417c0-1.664-.341-3.28-1.019-4.803z"/></symbol>
<symbol id="icon-time" viewBox="0 0 32 32"><path d="M15.987 2.667C8.627 2.667 2.667 8.64 2.667 16s5.96 13.333 13.32 13.333c7.373 0 13.347-5.973 13.347-13.333S23.361 2.667 15.987 2.667zm5.346 18.666a1.323 1.323 0 0 1-1.449.289 1.323 1.323 0 0 1-.431-.289l-4.387-4.387a1.338 1.338 0 0 1-.4-.946v-5.333c0-.733.6-1.333 1.333-1.333s1.333.6 1.333 1.333v4.787l4 4c.52.52.52 1.36 0 1.88z"/></symbol>
<symbol id="icon-close" viewBox="0 0 20 20"><path d="M10 8.586 2.929 1.515 1.515 2.929 8.586 10l-7.071 7.071 1.414 1.414L10 11.414l7.071 7.071 1.414-1.414L11.414 10l7.071-7.071-1.414-1.414L10 8.586z"/></symbol>
<symbol id="icon-cookie" viewBox="0 0 32 32"><path d="M24.443 2.609c-.732 0-1.324.597-1.326 1.333 0 .736.595 1.333 1.326 1.333s1.327-.597 1.327-1.333-.595-1.333-1.327-1.333zm.355 11.611c1.145 1.717 2.593 2.243 4.474 1.081.062.647.078 1.306.044 1.975-.37 7.393-6.632 13.084-13.987 12.712C7.976 29.613 2.313 23.32 2.684 15.93c.368-7.393 6.847-13.147 14.2-12.774-.652 2.051-.1 3.872 1.559 4.492-1.504 4.856 1.854 8.032 6.355 6.572zm-15.471-.957c1.102 0 1.994.898 1.994 2.004a2 2 0 0 1-1.994 2.004c-1.102 0-1.994-.898-1.994-2.004a2 2 0 0 1 1.994-2.004zm6.282 2.555c.634 0 1.149.517 1.149 1.155s-.515 1.155-1.149 1.155a1.152 1.152 0 0 1-1.149-1.155 1.15 1.15 0 0 1 1.149-1.155zm-4.987 4.758c.774 0 1.402.631 1.402 1.409s-.628 1.409-1.402 1.409-1.402-.631-1.402-1.409c0-.78.628-1.409 1.402-1.409zm3.021-10.782a1.1 1.1 0 0 1 1.098 1.104 1.1 1.1 0 0 1-1.098 1.104c-.608 0-1.098-.495-1.098-1.104s.492-1.104 1.098-1.104zm5.967 11.274c1.018 0 1.841.829 1.841 1.85 0 1.023-.825 1.85-1.841 1.85-1.018 0-1.841-.829-1.841-1.85s.825-1.85 1.841-1.85zm3.877-13.309c.683 0 1.238.557 1.238 1.244s-.555 1.244-1.238 1.244c-.683 0-1.238-.557-1.238-1.244s.555-1.244 1.238-1.244z"/></svg></defs></svg>

